<?xml version="1.0" encoding="UTF-8" standalone="no"?>
<!-- Created with Inkscape (http://www.inkscape.org/) -->

<svg
   width="110.04047mm"
   height="23.744003mm"
   viewBox="0 0 110.04047 23.744003"
   version="1.1"
   id="svg5"
   inkscape:version="1.2.2 (732a01da63, 2022-12-09)"
   sodipodi:docname="Rebecca-Copeland-full-logo-white.svg"
   xml:space="preserve"
   xmlns:inkscape="http://www.inkscape.org/namespaces/inkscape"
   xmlns:sodipodi="http://sodipodi.sourceforge.net/DTD/sodipodi-0.dtd"
   xmlns="http://www.w3.org/2000/svg"
   xmlns:svg="http://www.w3.org/2000/svg"><sodipodi:namedview
     id="namedview7"
     pagecolor="#ffffff"
     bordercolor="#000000"
     borderopacity="0.25"
     inkscape:showpageshadow="2"
     inkscape:pageopacity="0.0"
     inkscape:pagecheckerboard="0"
     inkscape:deskcolor="#d1d1d1"
     inkscape:document-units="mm"
     showgrid="false"
     inkscape:zoom="1.4142136"
     inkscape:cx="232.99168"
     inkscape:cy="-61.871843"
     inkscape:window-width="1387"
     inkscape:window-height="1040"
     inkscape:window-x="2079"
     inkscape:window-y="0"
     inkscape:window-maximized="0"
     inkscape:current-layer="layer1"
     showguides="true" /><defs
     id="defs2" /><g
     inkscape:label="Layer 1"
     inkscape:groupmode="layer"
     id="layer1"
     transform="translate(840.16634,-199.00677)"><path
       id="path708"
       style="font-size:35.7222px;font-family:'a Aksentuasi';-inkscape-font-specification:'High Tower Text';fill:#deeefb;fill-opacity:1;stroke-width:2.49632;paint-order:stroke markers fill"
       d="m -827.55026,199.00678 c -3.44969,0 -6.39182,1.11921 -8.82621,3.35747 -2.5267,2.31902 -3.78987,5.22628 -3.78987,8.72212 0,3.42661 1.22293,6.2361 3.66885,8.4282 2.41134,2.15751 5.42827,3.23618 9.05102,3.23618 2.19211,0 4.13038,-0.25961 5.81484,-0.77879 1.54601,-0.48457 2.43452,-1.03271 2.66528,-1.64419 0.34612,-0.94606 0.59411,-2.18628 0.74409,-3.72076 0.0346,-0.39228 -0.1788,-0.64026 -0.6403,-0.74409 -0.64609,-0.13845 -1.06157,0.0404 -1.24618,0.5365 -0.63456,1.70752 -1.45363,2.93613 -2.45737,3.68605 -1.04991,0.78455 -2.48625,1.17709 -4.30917,1.17709 -2.80358,0 -5.10519,-0.96362 -6.90503,-2.89037 -1.84599,-1.96135 -2.76907,-4.5342 -2.76907,-7.71852 0,-3.2074 0.87688,-5.73404 2.63057,-7.58002 1.61523,-1.696 3.70343,-2.54398 6.26474,-2.54398 2.04213,0 3.57086,0.38063 4.58616,1.14209 0.99623,0.73878 2.17823,2.41015 2.40162,3.92867 0.20059,1.36349 0.13314,1.60375 0.0285,2.83549 -0.21818,2.5675 -1.83646,7.98168 -3.79253,6.16955 -0.78916,-0.94929 -1.38829,-1.82554 -1.97159,-3.15225 1.82994,-0.50895 2.74505,-1.55544 2.74505,-3.13949 0,-0.9264 -0.37168,-1.62685 -1.11511,-2.10149 -0.66334,-0.42889 -1.56693,-0.64355 -2.71065,-0.64355 -0.55469,0 -1.15516,0.008 -1.80136,0.0257 -0.64619,0.0172 -1.04929,0.0258 -1.20941,0.0258 -0.48035,0 -0.83794,-0.0173 -1.07239,-0.0516 -0.0744,-0.0114 -0.14293,-0.0172 -0.20583,-0.0172 -0.21159,0 -0.31732,0.10576 -0.31732,0.31733 0,0.13726 0.15733,0.23753 0.47184,0.30044 0.63476,0.12579 0.95198,0.46032 0.95198,1.00359 v 8.21764 c 0,0.5547 -0.28006,0.86042 -0.84047,0.91759 -0.24591,0.0229 -0.36894,0.10873 -0.36894,0.25743 0,0.21728 0.12303,0.31728 0.36894,0.30012 1.22377,-0.0915 2.35325,-0.11424 3.3883,-0.0684 0.23446,0.0114 0.37737,-8e-5 0.42885,-0.0344 0.0515,-0.0343 0.0771,-0.12277 0.0771,-0.26573 0,-0.17157 -0.15733,-0.28306 -0.47185,-0.33454 -0.45177,-0.0685 -0.74335,-0.14585 -0.87487,-0.23162 -0.13153,-0.0915 -0.19722,-0.27187 -0.19722,-0.54064 v -3.60243 c 0.0457,0 0.42032,-0.0173 1.1237,-0.0516 1.82422,3.51691 3.96513,5.28028 5.37948,3.79223 0.93823,-0.98712 3.31512,-6.1691 3.42623,-9.54895 0.0426,-1.295 -0.43586,-2.74764 -1.06966,-3.73706 -0.46994,-0.72997 -0.98367,-1.23443 -1.67088,-1.73562 -1.61914,-1.18083 -3.13788,-1.49997 -5.58382,-1.49997 z m -0.51575,7.16246 c 0.95501,0 1.64968,0.18009 2.0843,0.54035 0.4346,0.36027 0.65216,0.96362 0.65216,1.80997 0,0.85778 -0.28037,1.48965 -0.84078,1.89566 -0.60616,0.44033 -1.60107,0.68324 -2.98498,0.72898 v -4.04017 c 0,-0.38886 0.0744,-0.6404 0.22303,-0.75477 0.1487,-0.1201 0.43739,-0.18002 0.86627,-0.18002 z"
       sodipodi:nodetypes="scscsccccccscscscssccscssscsscsscsccssccsccsacsssssccscss"
       inkscape:export-filename="at-icon-logo-white4.svg"
       inkscape:export-xdpi="300"
       inkscape:export-ydpi="300" /><text
       xml:space="preserve"
       style="font-style:normal;font-variant:normal;font-weight:normal;font-stretch:normal;font-size:16.3062px;font-family:'a Aksentuasi';-inkscape-font-specification:'a Aksentuasi';letter-spacing:1.26996px;white-space:pre;inline-size:85.9806;fill:#deeefb;fill-opacity:1;stroke:none;stroke-width:0.549983;stroke-dasharray:none;stroke-opacity:1;paint-order:stroke markers fill"
       x="-815.37109"
       y="209.7755"
       id="text712"><tspan
         x="-815.37109"
         y="209.7755"
         id="tspan7447"><tspan
           style="font-family:'High Tower Text';-inkscape-font-specification:'High Tower Text'"
           id="tspan7445">REBECCA</tspan></tspan></text><text
       xml:space="preserve"
       style="font-style:normal;font-variant:normal;font-weight:normal;font-stretch:normal;font-size:14.805px;font-family:'a Aksentuasi';-inkscape-font-specification:'a Aksentuasi';white-space:pre;inline-size:85.9544;fill:#deeefb;fill-opacity:1;stroke:none;stroke-width:0.499984;stroke-dasharray:none;stroke-opacity:1;paint-order:stroke markers fill"
       x="-815.27948"
       y="222.52844"
       id="text716"><tspan
         x="-815.27948"
         y="222.52844"
         id="tspan7451"><tspan
           style="font-family:'High Tower Text';-inkscape-font-specification:'High Tower Text'"
           id="tspan7449">COPELAND</tspan></tspan></text></g></svg>
